<svg width="50" height="50" viewBox="0 0 50 50" fill="none" xmlns="http://www.w3.org/2000/svg">
<path fill-rule="evenodd" clip-rule="evenodd" d="M25.0001 27.946L36.7855 39.7314C37.1784 40.1109 37.7047 40.3209 38.2509 40.3161C38.7972 40.3114 39.3197 40.0923 39.706 39.706C40.0922 39.3198 40.3113 38.7972 40.3161 38.251C40.3208 37.7047 40.1108 37.1785 39.7313 36.7856L27.9459 25.0001L39.7313 13.2147C40.1108 12.8218 40.3208 12.2956 40.3161 11.7493C40.3113 11.2031 40.0922 10.6805 39.706 10.2943C39.3197 9.90801 38.7972 9.68891 38.2509 9.68416C37.7047 9.67941 37.1784 9.8894 36.7855 10.2689L25.0001 22.0543L13.2147 10.2689C12.82 9.89878 12.2968 9.69674 11.7558 9.70553C11.2148 9.71431 10.6984 9.93323 10.3159 10.316C9.93347 10.6987 9.71491 11.2152 9.70651 11.7562C9.69811 12.2972 9.90052 12.8203 10.2709 13.2147L22.0542 25.0001L10.2688 36.7856C10.0698 36.9777 9.91114 37.2076 9.80195 37.4618C9.69277 37.716 9.63529 37.9894 9.63289 38.266C9.63049 38.5426 9.6832 38.8169 9.78795 39.073C9.8927 39.329 10.0474 39.5616 10.243 39.7572C10.4386 39.9528 10.6712 40.1075 10.9273 40.2123C11.1833 40.317 11.4576 40.3697 11.7342 40.3673C12.0109 40.3649 12.2842 40.3075 12.5384 40.1983C12.7926 40.0891 13.0225 39.9304 13.2147 39.7314L25.0001 27.946Z" fill="#E6E6E6"/>
</svg>
