<svg width="20" height="20" viewBox="0 0 20 20" fill="none" xmlns="http://www.w3.org/2000/svg">
<path fill-rule="evenodd" clip-rule="evenodd" d="M10.0004 11.1783L14.7146 15.8925C14.8718 16.0443 15.0823 16.1283 15.3008 16.1264C15.5193 16.1245 15.7283 16.0368 15.8828 15.8823C16.0373 15.7278 16.1249 15.5188 16.1268 15.3003C16.1287 15.0818 16.0447 14.8713 15.8929 14.7141L11.1788 9.99996L15.8929 5.28579C16.0447 5.12863 16.1287 4.91812 16.1268 4.69963C16.1249 4.48113 16.0373 4.27212 15.8828 4.11761C15.7283 3.96311 15.5193 3.87547 15.3008 3.87357C15.0823 3.87167 14.8718 3.95566 14.7146 4.10746L10.0004 8.82163L5.28626 4.10746C5.12838 3.95942 4.9191 3.8786 4.7027 3.88211C4.4863 3.88563 4.27975 3.9732 4.12676 4.12629C3.97378 4.27938 3.88636 4.48599 3.88299 4.7024C3.87963 4.9188 3.9606 5.12802 4.10876 5.28579L8.82209 9.99996L4.10792 14.7141C4.02833 14.791 3.96485 14.883 3.92117 14.9846C3.8775 15.0863 3.85451 15.1956 3.85355 15.3063C3.85259 15.4169 3.87367 15.5267 3.91557 15.6291C3.95747 15.7315 4.01935 15.8245 4.09759 15.9028C4.17584 15.981 4.26888 16.0429 4.37129 16.0848C4.47371 16.1267 4.58344 16.1478 4.69409 16.1468C4.80474 16.1459 4.91409 16.1229 5.01576 16.0792C5.11743 16.0355 5.20938 15.9721 5.28626 15.8925L10.0004 11.1783Z" fill="#E6E6E6"/>
</svg>
